<svg width="43" height="74" viewBox="0 0 43 74" version="1.1" xmlns="http://www.w3.org/2000/svg" xmlns:xlink="http://www.w3.org/1999/xlink">
<title>noun_722246_cc</title>
<desc>Created using Figma</desc>
<g id="Canvas" transform="translate(212 192)">
<g id="noun_722246_cc">
<g id="Group">
<g id="Vector">
<use xlink:href="#path0_fill" transform="translate(-211.749 -123.139)"/>
</g>
</g>
<g id="Group">
<g id="Vector">
<use xlink:href="#path1_fill" transform="translate(-211.749 -130.155)"/>
</g>
</g>
<g id="Group">
<g id="Vector">
<use xlink:href="#path2_fill" transform="translate(-208.153 -155.757)"/>
</g>
</g>
<g id="Group">
<g id="Vector">
<use xlink:href="#path3_fill" transform="translate(-199.943 -159.07)"/>
</g>
</g>
<g id="Group">
<g id="Vector">
<use xlink:href="#path4_fill" transform="translate(-201.393 -192)"/>
</g>
</g>
<g id="Group">
<g id="Vector">
<use xlink:href="#path5_fill" transform="translate(-202.194 -166.194)"/>
</g>
</g>
</g>
</g>
<defs>
<path id="path0_fill" d="M 42.3469 -6.71387e-07L 0.206931 -6.71387e-07C -0.402069 1.57 0.378931 3.336 1.94893 3.944C 2.30293 4.081 2.67593 4.15 3.05393 4.15L 21.2759 4.15L 39.4989 4.15C 41.1829 4.152 42.5499 2.789 42.5519 1.103C 42.5539 0.727004 42.4829 0.351999 42.3469 -6.71387e-07Z"/>
<path id="path1_fill" d="M 41.5396 5.848C 42.9906 4.125 42.8676 1.575 41.2566 4.88281e-07L 1.2946 4.88281e-07C -0.315404 1.574 -0.439404 4.125 1.0106 5.848L 41.5396 5.848Z"/>
<path id="path2_fill" d="M 35.362 24.436L 35.362 23.386C 35.362 22.22 34.674 21.162 33.61 20.687C 32.09 20.011 30.786 18.933 29.837 17.568C 29.72 17.402 29.622 17.222 29.544 17.035C 27.292 11.621 25.997 5.857 25.722 -7.01904e-07L 9.64 -7.01904e-07C 9.363 5.857 8.07 11.621 5.817 17.035C 5.739 17.223 5.64 17.402 5.525 17.568C 4.575 18.933 3.269 20.011 1.752 20.687C 0.685999 21.163 1.2207e-07 22.22 1.2207e-07 23.386L 1.2207e-07 24.436L 35.362 24.436Z"/>
<path id="path3_fill" d="M 17.496 2.146C 18.293 2.146 18.939 1.499 18.939 0.701L 18.939 -4.27246e-07L -7.93457e-07 -4.27246e-07L -7.93457e-07 0.701C -7.93457e-07 1.499 0.646 2.146 1.443 2.146L 17.496 2.146Z"/>
<path id="path4_fill" d="M 1.11643 24.6394L 20.7234 24.6394C 22.4874 21.0424 22.1434 16.7684 19.8234 13.5034C 18.2984 10.9554 16.4214 8.63536 14.2474 6.61236C 15.6124 4.77436 15.2274 2.17936 13.3904 0.816358C 11.5524 -0.547642 8.95743 -0.162642 7.59443 1.67436C 6.50643 3.14036 6.50643 5.14636 7.59443 6.61236C 5.42043 8.63536 3.54343 10.9544 2.01943 13.5034C -0.302573 16.7684 -0.647573 21.0424 1.11643 24.6394Z"/>
<path id="path5_fill" d="M 21.1905 5.957C 22.8175 5.517 23.7785 3.842 23.3365 2.216C 23.0225 1.053 22.0515 0.184999 20.8595 -9.76563e-07L 2.58145 -9.76563e-07C 0.917455 0.257999 -0.221547 1.816 0.036453 3.481C 0.220453 4.671 1.08845 5.642 2.25145 5.958L 21.1905 5.958L 21.1905 5.957Z"/>
</defs>
</svg>
