<svg width="44" height="95" viewBox="0 0 44 95" version="1.1" xmlns="http://www.w3.org/2000/svg" xmlns:xlink="http://www.w3.org/1999/xlink">
<title>noun_722242_cc</title>
<desc>Created using Figma</desc>
<g id="Canvas" transform="translate(69 202)">
<g id="noun_722242_cc">
<g id="Group">
<g id="Vector">
<use xlink:href="#path0_fill" transform="translate(-68.0341 -111.251)"/>
</g>
</g>
<g id="Group">
<g id="Vector">
<use xlink:href="#path1_fill" transform="translate(-61.755 -202)"/>
</g>
</g>
<g id="Group">
<g id="Vector">
<use xlink:href="#path2_fill" transform="translate(-58.478 -166.149)"/>
</g>
</g>
<g id="Group">
<g id="Vector">
<use xlink:href="#path3_fill" transform="translate(-56.227 -158.989)"/>
</g>
</g>
<g id="Group">
<g id="Vector">
<use xlink:href="#path4_fill" transform="translate(-64.438 -155.676)"/>
</g>
</g>
<g id="Group">
<g id="Vector">
<use xlink:href="#path5_fill" transform="translate(-68.0331 -118.265)"/>
</g>
</g>
</g>
</g>
<defs>
<path id="path0_fill" d="M 42.3461 -1.52588e-06L 0.206088 -1.52588e-06C -0.400912 1.57 0.378088 3.338 1.95009 3.945C 2.30209 4.082 2.67709 4.152 3.05409 4.15L 39.4991 4.15C 41.1831 4.154 42.5501 2.789 42.5521 1.105C 42.5521 0.726002 42.4831 0.352998 42.3461 -1.52588e-06Z"/>
<path id="path1_fill" d="M 6.795 34.684C 5.984 28.528 3.649 22.672 -1.06812e-06 17.647C 3.273 15.479 6.979 14.045 10.859 13.447C 11.039 12.3 11.687 11.278 12.648 10.627L 12.648 8.871L 9.892 8.871C 9.246 8.871 8.724 8.349 8.724 7.704L 8.724 5.338C 8.724 4.693 9.246 4.171 9.892 4.171L 12.648 4.171L 12.648 1.167C 12.648 0.522 13.171 7.05719e-08 13.816 7.05719e-08L 16.181 7.05719e-08C 16.826 7.05719e-08 17.347 0.523 17.347 1.167L 17.347 4.172L 20.103 4.172C 20.748 4.172 21.271 4.694 21.271 5.339L 21.271 7.704C 21.271 8.349 20.748 8.871 20.103 8.871L 17.347 8.871L 17.347 10.627C 18.31 11.278 18.956 12.3 19.138 13.447C 23.017 14.045 26.722 15.479 29.995 17.647C 26.349 22.672 24.013 28.528 23.2 34.684L 6.795 34.684Z"/>
<path id="path2_fill" d="M 2.251 5.993C 0.921999 5.633 -6.40869e-07 4.427 -6.40869e-07 3.049C -6.40869e-07 1.365 1.363 -3.35693e-07 3.048 -3.35693e-07L 3.654 -3.35693e-07L 19.786 -3.35693e-07L 20.391 -3.35693e-07C 21.768 -3.35693e-07 22.975 0.922999 23.336 2.252C 23.775 3.877 22.815 5.552 21.188 5.993L 2.251 5.993Z"/>
<path id="path3_fill" d="M 1.444 2.146C 0.646999 2.146 -1.19019e-06 1.499 -1.19019e-06 0.701L -1.19019e-06 -4.88281e-07L 18.938 -4.88281e-07L 18.938 0.701C 18.938 1.499 18.292 2.146 17.495 2.146L 1.444 2.146Z"/>
<path id="path4_fill" d="M 25.706 -7.62939e-07L 25.706 11.432C 25.944 17.416 27.243 23.311 29.544 28.842C 29.622 29.03 29.72 29.209 29.837 29.375C 30.788 30.738 32.093 31.816 33.61 32.494C 34.676 32.969 35.362 34.025 35.362 35.193L 35.362 36.242L 2.74658e-07 36.242L 2.74658e-07 35.193C 2.74658e-07 34.025 0.687 32.968 1.751 32.494C 3.27 31.816 4.575 30.738 5.524 29.375C 5.641 29.209 5.739 29.029 5.817 28.842C 8.118 23.311 9.417 17.416 9.655 11.432L 9.655 -7.62939e-07L 25.706 -7.62939e-07Z"/>
<path id="path5_fill" d="M 41.2561 -1.46484e-06C 42.8671 1.574 42.9901 4.123 41.5411 5.848L 1.0101 5.848C -0.438904 4.123 -0.315904 1.575 1.2951 -1.46484e-06L 41.2561 -1.46484e-06Z"/>
</defs>
</svg>
