<svg width="44" height="74" viewBox="0 0 44 74" version="1.1" xmlns="http://www.w3.org/2000/svg" xmlns:xlink="http://www.w3.org/1999/xlink">
<title>noun_722247_cc</title>
<desc>Created using Figma</desc>
<g id="Canvas" transform="translate(141 191)">
<g id="noun_722247_cc">
<g id="Group">
<g id="Vector">
<use xlink:href="#path0_fill" transform="translate(-139.616 -121.715)"/>
</g>
</g>
<g id="Group">
<g id="Vector">
<use xlink:href="#path1_fill" transform="translate(-139.615 -128.731)"/>
</g>
</g>
<g id="Group">
<g id="Vector">
<use xlink:href="#path2_fill" transform="translate(-136.021 -138.304)"/>
</g>
</g>
<g id="Group">
<g id="Vector">
<use xlink:href="#path3_fill" transform="translate(-140.89 -191)"/>
</g>
</g>
</g>
</g>
<defs>
<path id="path0_fill" d="M 42.3461 -6.71387e-07L 0.206087 -6.71387e-07C -0.400913 1.57 0.378087 3.336 1.95009 3.944C 2.30209 4.081 2.67709 4.15 3.05409 4.15L 21.2761 4.15L 39.4991 4.15C 41.1831 4.152 42.5501 2.789 42.5521 1.103C 42.5541 0.727004 42.4831 0.351999 42.3461 -6.71387e-07Z"/>
<path id="path1_fill" d="M 41.5415 5.848C 42.9905 4.125 42.8675 1.575 41.2565 4.88281e-07L 1.2955 4.88281e-07C -0.315505 1.574 -0.439505 4.125 1.0105 5.848L 41.5415 5.848Z"/>
<path id="path2_fill" d="M 35.363 8.407L 35.363 2.918C 35.363 1.307 34.056 2.44141e-06 32.445 2.44141e-06L 31.248 2.44141e-06L 4.115 2.44141e-06L 2.919 2.44141e-06C 1.307 2.44141e-06 9.15527e-08 1.307 9.15527e-08 2.918L 9.15527e-08 8.407L 35.363 8.407Z"/>
<path id="path3_fill" d="M 8.984 51.5288L 36.116 51.5288L 36.116 48.1578C 38.393 43.9608 39.505 39.2308 39.335 34.4598C 38.87 21.3128 32.91 8.96479 22.904 0.424789C 22.158 -0.211211 21.037 -0.123211 20.401 0.622789C 20.128 0.943789 19.976 1.35279 19.976 1.77579L 19.976 8.11579L 15.756 9.04079C 12.354 9.78679 9.766 12.5548 9.25 15.9978L 6.10352e-07 30.1788C 0.0100006 33.2078 2.473 35.6558 5.502 35.6468C 8.155 35.6378 10.422 33.7308 10.885 31.1178L 16.24 28.5128C 16.998 28.1438 17.902 28.2468 18.558 28.7768C 19.494 29.5318 19.639 30.9018 18.884 31.8368L 10.952 41.6618C 9.679 43.2398 8.983 45.2068 8.983 47.2348L 8.983 51.5288L 8.984 51.5288Z"/>
</defs>
</svg>
