<svg width="36" height="58" viewBox="0 0 36 58" version="1.1" xmlns="http://www.w3.org/2000/svg" xmlns:xlink="http://www.w3.org/1999/xlink">
<title>noun_722243_cc</title>
<desc>Created using Figma</desc>
<g id="Canvas" transform="translate(-8 183)">
<g id="noun_722243_cc">
<g id="Group">
<g id="Vector">
<use xlink:href="#path0_fill" transform="translate(16.3377 -183)"/>
</g>
</g>
<g id="Group">
<g id="Vector">
<use xlink:href="#path1_fill" transform="translate(17.786 -160.257)"/>
</g>
</g>
<g id="Group">
<g id="Vector">
<use xlink:href="#path2_fill" transform="translate(15.948 -166.87)"/>
</g>
</g>
<g id="Group">
<g id="Vector">
<use xlink:href="#path3_fill" transform="translate(11.088 -157.248)"/>
</g>
</g>
<g id="Group">
<g id="Vector">
<use xlink:href="#path4_fill" transform="translate(8.15762 -135.611)"/>
</g>
</g>
<g id="Group">
<g id="Vector">
<use xlink:href="#path5_fill" transform="translate(8.15722 -129.533)"/>
</g>
</g>
</g>
</g>
<defs>
<path id="path0_fill" d="M 17.2523 14.9627C 20.2733 10.6777 19.2472 4.75466 14.9622 1.73466C 10.6762 -1.28634 4.75425 -0.260342 1.73325 4.02566C -0.577751 7.30466 -0.577751 11.6837 1.73325 14.9627L 17.2523 14.9627Z"/>
<path id="path1_fill" d="M 13.629 1.841L 14.923 1.841C 15.568 1.841 16.09 1.319 16.09 0.674L 16.09 2.13623e-07L -7.01904e-07 2.13623e-07L -7.01904e-07 0.674C -7.01904e-07 1.319 0.521999 1.841 1.167 1.841L 2.462 1.841L 13.629 1.841Z"/>
<path id="path2_fill" d="M 2.809 1.25122e-06C 1.257 0.00100125 1.86157e-06 1.26 1.86157e-06 2.812C 1.86157e-06 3.988 0.734 5.04 1.837 5.447L 17.927 5.447C 19.383 4.909 20.127 3.294 19.59 1.838C 19.183 0.734999 18.131 0.0020007 16.955 0.0010007L 2.809 0.0010007L 2.809 1.25122e-06Z"/>
<path id="path3_fill" d="M 29.485 20.47L 29.485 19.658C 29.485 18.58 28.85 17.601 27.865 17.162C 26.68 16.635 25.662 15.793 24.921 14.729C 24.818 14.582 24.736 14.421 24.676 14.252C 22.067 9.938 20.581 5.037 20.357 -9.15527e-07L 9.129 -9.15527e-07C 8.905 5.038 7.419 9.938 4.809 14.252C 4.749 14.421 4.667 14.581 4.565 14.729C 3.823 15.792 2.805 16.634 1.62 17.162C 0.635 17.601 1.25122e-06 18.58 1.25122e-06 19.658L 1.25122e-06 20.47L 29.485 20.47Z"/>
<path id="path4_fill" d="M 34.5364 4.913C 35.6774 3.45 35.6054 1.381 34.3684 1.2207e-07L 0.978377 1.2207e-07C -0.259623 1.381 -0.330626 3.45 0.810374 4.913L 34.5364 4.913Z"/>
<path id="path5_fill" d="M 0.118786 0.0010025C -0.326214 1.487 0.517784 3.054 2.00378 3.499C 2.26678 3.578 2.53879 3.618 2.81279 3.618L 17.6738 3.618L 32.5338 3.618C 34.0868 3.618 35.3458 2.362 35.3458 0.809001C 35.3458 0.536001 35.3068 0.262003 35.2278 3.05176e-06L 0.118786 3.05176e-06L 0.118786 0.0010025Z"/>
</defs>
</svg>
