<svg width="44" height="85" viewBox="0 0 44 85" version="1.1" xmlns="http://www.w3.org/2000/svg" xmlns:xlink="http://www.w3.org/1999/xlink">
<title>noun_722244_cc</title>
<desc>Created using Figma</desc>
<g id="Canvas" transform="translate(-73 197)">
<g id="noun_722244_cc">
<g id="Group">
<g id="Vector">
<use xlink:href="#path0_fill" transform="translate(80.0359 -197)"/>
</g>
</g>
<g id="Group">
<g id="Vector">
<use xlink:href="#path1_fill" transform="translate(83.071 -171.054)"/>
</g>
</g>
<g id="Group">
<g id="Vector">
<use xlink:href="#path2_fill" transform="translate(85.325 -163.894)"/>
</g>
</g>
<g id="Group">
<g id="Vector">
<use xlink:href="#path3_fill" transform="translate(77.112 -160.581)"/>
</g>
</g>
<g id="Group">
<g id="Vector">
<use xlink:href="#path4_fill" transform="translate(73.5186 -123.17)"/>
</g>
</g>
<g id="Group">
<g id="Vector">
<use xlink:href="#path5_fill" transform="translate(73.5169 -116.156)"/>
</g>
</g>
</g>
</g>
<defs>
<path id="path0_fill" d="M 6.5561 24.7787C 5.7771 18.8807 3.5991 13.2547 0.205098 8.36872C 0.020098 8.10272 -0.0439012 7.77072 0.0300988 7.45372C 0.175099 6.83672 0.791097 6.45372 1.4081 6.59772C 4.0341 7.21072 6.4871 8.41272 8.5811 10.1137C 9.4001 8.87972 10.3451 7.73272 11.3971 6.69172C 10.2911 5.20672 10.2911 3.17172 11.3971 1.68672C 12.7781 -0.168278 15.4021 -0.552277 17.2581 0.829723C 19.1131 2.21172 19.4981 4.83572 18.1151 6.69172C 19.1701 7.73272 20.1131 8.87972 20.9311 10.1137C 23.0251 8.41272 25.4781 7.21072 28.1051 6.59772C 28.4211 6.52372 28.7531 6.58772 29.0191 6.77272C 29.5401 7.13372 29.6691 7.84872 29.3081 8.36872C 25.9131 13.2547 23.7361 18.8807 22.9581 24.7787L 6.5561 24.7787Z"/>
<path id="path1_fill" d="M 19.788 -3.35693e-07L 20.393 -3.35693e-07C 21.77 -3.35693e-07 22.977 0.922999 23.336 2.252C 23.777 3.877 22.816 5.552 21.191 5.993L 2.251 5.993C 0.921999 5.633 -8.54492e-07 4.427 -8.54492e-07 3.049C -8.54492e-07 1.365 1.365 -3.35693e-07 3.049 -3.35693e-07L 3.654 -3.35693e-07L 19.788 -3.35693e-07Z"/>
<path id="path2_fill" d="M 18.939 -4.88281e-07L 18.939 0.701C 18.939 1.499 18.293 2.146 17.494 2.146L 1.444 2.146C 0.647001 2.146 7.62939e-07 1.499 7.62939e-07 0.701L 7.62939e-07 -4.88281e-07L 18.939 -4.88281e-07Z"/>
<path id="path3_fill" d="M -4.88281e-07 36.243L -4.88281e-07 35.194C -4.88281e-07 34.026 0.687998 32.969 1.752 32.495C 3.271 31.817 4.576 30.739 5.527 29.376C 5.642 29.21 5.74 29.03 5.818 28.843C 8.119 23.312 9.419 17.417 9.656 11.433L 9.656 -7.62939e-07L 25.706 -7.62939e-07L 25.706 11.432C 25.944 17.416 27.243 23.311 29.544 28.842C 29.622 29.03 29.72 29.209 29.837 29.375C 30.788 30.738 32.093 31.816 33.61 32.494C 34.676 32.969 35.362 34.025 35.362 35.193L 35.362 36.242L -4.88281e-07 36.242L -4.88281e-07 36.243Z"/>
<path id="path4_fill" d="M 1.01145 5.848C -0.439554 4.123 -0.315555 1.575 1.29444 -1.46484e-06L 41.2544 -1.46484e-06C 42.8654 1.574 42.9884 4.123 41.5394 5.848L 1.01145 5.848Z"/>
<path id="path5_fill" d="M 0.206087 -1.52588e-06L 42.3461 -1.52588e-06C 42.4831 0.353998 42.5531 0.727002 42.5531 1.105C 42.5491 2.789 41.1841 4.154 39.4981 4.15L 21.2761 4.15L 3.05409 4.15C 2.67709 4.152 2.30209 4.082 1.95009 3.945C 0.378086 3.338 -0.400913 1.57 0.206087 -1.52588e-06Z"/>
</defs>
</svg>
