<svg width="44" height="62" viewBox="0 0 44 62" version="1.1" xmlns="http://www.w3.org/2000/svg" xmlns:xlink="http://www.w3.org/1999/xlink">
<title>noun_722245_cc</title>
<desc>Created using Figma</desc>
<g id="Canvas" transform="translate(-146 186)">
<g id="noun_722245_cc">
<g id="Group">
<g id="Vector">
<use xlink:href="#path0_fill" transform="translate(146.652 -128.964)"/>
</g>
</g>
<g id="Group">
<g id="Vector">
<use xlink:href="#path1_fill" transform="translate(146.653 -135.979)"/>
</g>
</g>
<g id="Group">
<g id="Vector">
<use xlink:href="#path2_fill" transform="translate(150.249 -161.583)"/>
</g>
</g>
<g id="Group">
<g id="Vector">
<use xlink:href="#path3_fill" transform="translate(158.459 -164.895)"/>
</g>
</g>
<g id="Group">
<g id="Vector">
<use xlink:href="#path4_fill" transform="translate(156.439 -167.838)"/>
</g>
</g>
<g id="Group">
<g id="Vector">
<use xlink:href="#path5_fill" transform="translate(151.942 -186)"/>
</g>
</g>
</g>
</g>
<defs>
<path id="path0_fill" d="M 42.3455 -6.71387e-07L 0.20652 -6.71387e-07C -0.40148 1.57 0.378521 3.336 1.94852 3.944C 2.30152 4.081 2.67652 4.15 3.05352 4.15L 21.2775 4.15L 39.4975 4.15C 41.1835 4.152 42.5505 2.789 42.5505 1.103C 42.5525 0.727004 42.4825 0.351999 42.3455 -6.71387e-07Z"/>
<path id="path1_fill" d="M 1.2951 -6.10352e-08C -0.315903 1.574 -0.438903 4.125 1.0101 5.848L 41.5401 5.848C 42.9911 4.125 42.8661 1.575 41.2571 -6.10352e-08L 1.2951 -6.10352e-08Z"/>
<path id="path2_fill" d="M 9.638 -1.52588e-07C 9.361 5.857 8.07 11.621 5.816 17.035C 5.738 17.223 5.64 17.402 5.524 17.568C 4.574 18.933 3.269 20.011 1.751 20.687C 0.686 21.163 5.49316e-07 22.22 5.49316e-07 23.386L 5.49316e-07 24.436L 35.361 24.436L 35.361 23.386C 35.361 22.22 34.675 21.162 33.611 20.687C 32.091 20.011 30.787 18.933 29.836 17.568C 29.721 17.402 29.623 17.222 29.545 17.035C 27.291 11.621 25.998 5.857 25.721 -1.52588e-07L 9.638 -1.52588e-07Z"/>
<path id="path3_fill" d="M -3.66211e-07 -4.27246e-07L -3.66211e-07 0.701C -3.66211e-07 1.499 0.645999 2.146 1.445 2.146L 17.493 2.146C 18.292 2.146 18.938 1.499 18.938 0.701L 18.938 -4.27246e-07L -3.66211e-07 -4.27246e-07Z"/>
<path id="path4_fill" d="M 20.959 1.776C 21.871 1.529 22.617 0.872999 22.979 -1.2207e-06L -8.23975e-07 -1.2207e-06C 0.361999 0.872999 1.107 1.529 2.02 1.776L 20.959 1.776Z"/>
<path id="path5_fill" d="M 4.266 16.994L 27.708 16.994L 28.517 16.994C 29.091 16.994 29.581 16.576 29.669 16.007L 31.96 1.347C 32.058 0.71 31.624 0.113 30.987 0.014C 30.926 0.00499997 30.866 3.05176e-08 30.807 3.05176e-08L 24.073 3.05176e-08C 23.499 3.05176e-08 23.011 0.419 22.921 0.987L 22.005 6.853L 20.534 6.853L 20.534 1.167C 20.534 0.522 20.013 3.05176e-08 19.368 3.05176e-08L 12.604 3.05176e-08C 11.959 3.05176e-08 11.437 0.522 11.437 1.167L 11.437 6.853L 9.968 6.853L 9.052 0.987C 8.963 0.419 8.474 3.05176e-08 7.898 3.05176e-08L 1.167 3.05176e-08C 0.522001 3.05176e-08 1.34277e-06 0.522 1.34277e-06 1.167C 1.34277e-06 1.228 0.00400128 1.288 0.0140013 1.347L 2.305 16.007C 2.393 16.575 2.883 16.994 3.458 16.994L 4.266 16.994Z"/>
</defs>
</svg>
